{"title":"Taylor Swift- Crazier 1080p 6CH ~Abhinav4u~","uid":7147554,"size":169557560,"categoryP":"video","categoryS":"music_videos","magnet":"?xt=urn:btih:70cac53510df97f5203ab779f9cd4c076640b9a7&amp;dn=Taylor+Swift-+Crazier+1080p+6CH+%7EAbhinav4u%7E&amp;tr=udp%3A%2F%2Ftracker.openbittorrent.com%3A80&amp;tr=udp%3A%2F%2Fopen.demonii.com%3A1337&amp;tr=udp%3A%2F%2Ftracker.coppersurfer.tk%3A6969&amp;tr=udp%3A%2F%2Fexodus.desync.com%3A6969","seeders":1,"leechers":0,"uploader":"Abhinav4u","files":4,"time":1333189266,"description":"Format                           : Matroska\nFile size                        : 162 MiB\nDuration                         : 3mn 15s\nOverall bit rate                 : 6 948 Kbps\nMovie name                       : Taylor Swift- Crazier 1080p 6CH  ~Abhinav4u~\nCover                            : Yes\n\nID                               : 1\nFormat                           : AVC\nFormat/Info                      : Advanced Video Codec\nFormat profile                   : &lt;a class=&quot;__cf_email__&quot; href=&quot;/cdn-cgi/l/email-protection&quot; data-cfemail=&quot;3b73525c537b770f150b&quot;&gt;[email&amp;#160;protected]&lt;/a&gt;&lt;script cf-hash='f9e31' type=&quot;text/javascript&quot;&gt;\n/* &lt;![CDATA[ */!function(){try{var t=&quot;currentScript&quot;in document?document.currentScript:function(){for(var t=document.getElementsByTagName(&quot;script&quot;),e=t.length;e--;)if(t[e].getAttribute(&quot;cf-hash&quot;))return t[e]}();if(t&amp;&amp;t.previousSibling){var e,r,n,i,c=t.previousSibling,a=c.getAttribute(&quot;data-cfemail&quot;);if(a){for(e=&quot;&quot;,r=parseInt(a.substr(0,2),16),n=2;a.length-n;n+=2)i=parseInt(a.substr(n,2),16)^r,e+=String.fromCharCode(i);e=document.createTextNode(e),c.parentNode.replaceChild(e,c)}}}catch(u){}}();/* ]]&gt; */&lt;/script&gt;\nFormat settings, CABAC           : Yes\nFormat settings, ReFrames        : 3 frames\nMuxing mode                      : Header stripping\nCodec ID                         : V_MPEG4/ISO/AVC\nDuration                         : 3mn 15s\nBit rate mode                    : Variable\nBit rate                         : 6 500 Kbps\nMaximum bit rate                 : 25.0 Mbps\nWidth                            : 1 920 pixels\nHeight                           : 1 080 pixels\nDisplay aspect ratio             : 16:9\nFrame rate                       : 23.976 fps\nColor space                      : YUV\nChroma subsampling               : 4:2:0\nBit depth                        : 8 bits\nScan type                        : Progressive\nBits/(Pixel*Frame)               : 0.131\nStream size                      : 148 MiB (92%)\nTitle                            : 1080p ~Abhinav4u~\n\nID                               : 2\nFormat                           : AC-3\nFormat/Info                      : Audio Coding 3\nMode extension                   : CM (complete main)\nMuxing mode                      : Header stripping\nCodec ID                         : A_AC3\nDuration                         : 3mn 15s\nBit rate mode                    : Constant\nBit rate                         : 448 Kbps\nChannel(s)                       : 6 channels\nChannel positions                : Front: L C R, Side: L R, LFE\nSampling rate                    : 48.0 KHz\nBit depth                        : 16 bits\nCompression mode                 : Lossy\nStream size                      : 10.4 MiB (6%)\nTitle                            : 6 CH ~Abhinav4u~\nLanguage                         : English\n\n\n &lt;a href=&quot;\nhttp://i.minus.com/iJacebBwyCn3i.png&quot; rel=&quot;nofollow&quot; target=&quot;_NEW&quot;&gt;\nhttp://i.minus.com/iJacebBwyCn3i.png&lt;/a&gt; &lt;a href=&quot;\nhttp://i.minus.com/ibli7G5JlH5b9w.png&quot; rel=&quot;nofollow&quot; target=&quot;_NEW&quot;&gt;\nhttp://i.minus.com/ibli7G5JlH5b9w.png&lt;/a&gt; &lt;a href=&quot;\nhttp://i.minus.com/ibzjQ6RyNQOgLg.png&quot; rel=&quot;nofollow&quot; target=&quot;_NEW&quot;&gt;\nhttp://i.minus.com/ibzjQ6RyNQOgLg.png&lt;/a&gt; &lt;a href=&quot;\nhttp://i.minus.com/iwcDgtcvWX9d2.png&quot; rel=&quot;nofollow&quot; target=&quot;_NEW&quot;&gt;\nhttp://i.minus.com/iwcDgtcvWX9d2.png&lt;/a&gt; &lt;a href=&quot;\nhttp://i.minus.com/ibkmL1VC0NV2aW.png&quot; rel=&quot;nofollow&quot; target=&quot;_NEW&quot;&gt;\nhttp://i.minus.com/ibkmL1VC0NV2aW.png&lt;/a&gt; &lt;a href=&quot;\nhttp://i.minus.com/i5XzEomnjhbyn.png&quot; rel=&quot;nofollow&quot; target=&quot;_NEW&quot;&gt;\nhttp://i.minus.com/i5XzEomnjhbyn.png&lt;/a&gt; &lt;a href=&quot;\nhttp://i.minus.com/i9XCtKdQfo9iy.png&quot; rel=&quot;nofollow&quot; target=&quot;_NEW&quot;&gt;\nhttp://i.minus.com/i9XCtKdQfo9iy.png&lt;/a&gt;\n\nEnjoy The Beautiful Song...\nRegards::Abhinav4u","torrent":{"xt":"urn:btih:70cac53510df97f5203ab779f9cd4c076640b9a7","amp;dn":"Taylor+Swift-+Crazier+1080p+6CH+%7EAbhinav4u%7E","amp;tr":["udp%3A%2F%2Ftracker.openbittorrent.com%3A80","udp%3A%2F%2Fopen.demonii.com%3A1337","udp%3A%2F%2Ftracker.coppersurfer.tk%3A6969","udp%3A%2F%2Fexodus.desync.com%3A6969"],"infoHash":"70cac53510df97f5203ab779f9cd4c076640b9a7","infoHashBuffer":{"type":"Buffer","data":[112,202,197,53,16,223,151,245,32,58,183,121,249,205,76,7,102,64,185,167]},"announce":[],"urlList":[]}}